<svg viewBox="0 0 25 24" xmlns="http://www.w3.org/2000/svg"><path d="M18.3 21a4.2 4.2 0 01-4-2.7 4.4 4.4 0 011-4.7 4.2 4.2 0 017.3 3c0 1.2-.5 2.3-1.3 3.1-.8.8-1.9 1.3-3 1.3zm0-7.1a2.8 2.8 0 00-2.5 1.7 2.9 2.9 0 00.5 3 2.8 2.8 0 004.8-2c0-.7-.3-1.4-.8-1.9a2.8 2.8 0 00-2-.8zM6.1 21a4.2 4.2 0 01-4-2.7 4.4 4.4 0 011-4.7 4.2 4.2 0 017.3 3c0 1.2-.5 2.3-1.3 3.1-.8.8-1.9 1.3-3 1.3zm0-7.1a2.8 2.8 0 00-2.6 1.7 2.9 2.9 0 00.6 3 2.8 2.8 0 004.8-2c0-.7-.3-1.4-.8-1.9a2.8 2.8 0 00-2-.8zm9-7.9a1.5 1.5 0 001.4-1l.1-.5a1.5 1.5 0 00-.9-1.4 1.5 1.5 0 00-1.9.8 1.5 1.5 0 00.8 2l.6.1z"/><path d="M17.4 9h-2a.2.2 0 01-.2-.1l-1.5-2.7a1.4 1.4 0 00-1-.8 1.4 1.4 0 00-1.3.4L8.2 9.1c-.3.3-.4.7-.4 1 0 .9.5 1.2.8 1.3a146.3 146.3 0 012.8 1.7v3.4c0 .4.4.7.8.8a.7.7 0 00.7-.5v-4.3a.8.8 0 00-.3-.6L11 10.6a.2.2 0 010-.1.2.2 0 010-.2l2-2a.2.2 0 01.1-.1.2.2 0 01.1 0l1 2a.7.7 0 00.7.3h2.6a.7.7 0 00.5-.2.8.8 0 00-.5-1.3z"/></svg>