<svg width="17" height="17" fill="none" xmlns="http://www.w3.org/2000/svg"><path d="M12.24 1.062a3.274 3.274 0 012.289.936c.607.597.95 1.407.951 2.252v7.791a3.169 3.169 0 01-.951 2.252 3.274 3.274 0 01-2.289.936H4.32a3.274 3.274 0 01-2.284-.938 3.169 3.169 0 01-.949-2.25V4.25A3.169 3.169 0 012.036 2a3.274 3.274 0 012.284-.938h7.92zm0-1.062H4.32a4.356 4.356 0 00-3.055 1.245A4.215 4.215 0 000 4.25v7.791c0 1.128.455 2.209 1.265 3.006A4.356 4.356 0 004.32 16.29h7.92a4.357 4.357 0 003.055-1.244 4.215 4.215 0 001.265-3.006V4.25a4.215 4.215 0 00-1.265-3.005A4.357 4.357 0 0012.24 0z" fill="#192144"/><path d="M8.287 5.014c.63 0 1.247.184 1.772.529a3.15 3.15 0 011.175 1.408 3.09 3.09 0 01.181 1.813 3.123 3.123 0 01-.873 1.607 3.205 3.205 0 01-1.633.859 3.238 3.238 0 01-1.843-.179 3.179 3.179 0 01-1.431-1.156 3.102 3.102 0 01.394-3.964 3.186 3.186 0 011.036-.68 3.228 3.228 0 011.222-.237zm0-1.062a4.32 4.32 0 00-2.374.704A4.216 4.216 0 004.337 6.54a4.137 4.137 0 00-.246 2.427 4.18 4.18 0 001.167 2.153 4.292 4.292 0 002.186 1.151 4.33 4.33 0 002.468-.238 4.256 4.256 0 001.917-1.547 4.153 4.153 0 00-.526-5.304c-.395-.39-.866-.7-1.383-.91a4.323 4.323 0 00-1.633-.32zm4.421.808a.957.957 0 00.965-.949.957.957 0 00-.965-.95.957.957 0 00-.965.95c0 .524.432.95.965.95z" fill="#192144"/></svg>