<svg width="18" height="21" xmlns="http://www.w3.org/2000/svg"><path d="M4.3 14c0-.4-.1-.8-.4-1a1.4 1.4 0 00-1-.4c-.4 0-.7.1-1 .4-.3.2-.4.6-.4 1s.1.6.4 1c.3.2.6.3 1 .3s.8-.1 1-.4c.3-.3.4-.6.4-1zm11.4 0c0-.4-.1-.8-.4-1a1.4 1.4 0 00-1-.4c-.4 0-.8.1-1 .4-.3.2-.4.6-.4 1s.1.6.4 1c.2.2.6.3 1 .3s.7-.1 1-.4.4-.6.4-1zm-.5-4.3l-.8-4.1a.7.7 0 00-.3-.4.7.7 0 00-.4-.2H3.5a.7.7 0 00-.5.2.7.7 0 00-.2.4L2 9.7c0 .2 0 .4.2.6l.5.2h11.8c.2 0 .4 0 .5-.2.2-.2.2-.4.2-.6zm-2.5-6.5a.5.5 0 00-.5-.6H5a.5.5 0 00-.4.2l-.2.3c0 .2 0 .3.2.4l.4.2h7a.5.5 0 00.6-.6zm4.4 7.7v6.5h-1.4v1.4c0 .3-.1.6-.4 1-.3.2-.6.3-1 .3s-.8-.1-1-.4a1.3 1.3 0 01-.4-1v-1.3H4.3v1.4c0 .3-.1.6-.4 1-.3.2-.6.3-1 .3s-.7-.1-1-.4a1.3 1.3 0 01-.4-1v-1.3H.1v-6.5c0-.8 0-1.6.3-2.4l1.1-4.8c0-.6.4-1 1-1.5.7-.4 1.6-.7 2.6-1A17.3 17.3 0 018.6 1c1.3 0 2.4.1 3.5.3 1 .3 1.9.6 2.5 1 .7.4 1 1 1.1 1.5l1.2 4.8.2 2.4z"/></svg>