<svg width="16" height="17" fill="none" xmlns="http://www.w3.org/2000/svg"><path d="M7.937 6.524c0 .189.153.337.341.337a.7.7 0 01.703.696.34.34 0 00.342.337.34.34 0 00.341-.337 1.38 1.38 0 00-1.386-1.37.34.34 0 00-.341.337zm5.557 1.37a.338.338 0 00.342-.337c0-3.031-2.492-5.495-5.558-5.495a.34.34 0 00-.341.338.34.34 0 00.341.337c2.69 0 4.875 2.164 4.875 4.82a.34.34 0 00.341.337z" fill="#161C35"/><path d="M11.067 7.557a.34.34 0 00.341.337.34.34 0 00.342-.337c0-1.894-1.557-3.433-3.472-3.433a.34.34 0 00-.341.338c0 .189.153.337.341.337 1.54 0 2.79 1.239 2.79 2.758zM8.278 0a.34.34 0 00-.341.338.34.34 0 00.341.337c3.84 0 6.964 3.088 6.964 6.882 0 .185.15.337.341.337a.34.34 0 00.342-.337C15.925 3.389 12.494 0 8.278 0zm3.335 11.114l-.447.24c-.754.408-1.341 1.527-2.272.684L6.462 9.6l-2.1-2.043c-1.055-1.334.127-1.65.54-2.4l.242-.439c.273-.5.372-1.06.29-1.62a2.557 2.557 0 00-.744-1.475A2.636 2.636 0 002.823.861c-.707 0-1.373.27-1.871.762L.778 1.8c-.922.911-1.028 2.48-.3 4.424.686 1.857 2.068 3.868 3.884 5.664 2.769 2.737 5.852 4.313 8.064 4.313.874 0 1.614-.246 2.14-.766l.178-.176a2.6 2.6 0 00.775-1.85 2.636 2.636 0 00-.775-1.845 2.683 2.683 0 00-3.13-.45z" fill="#161C35"/></svg>