<svg xmlns="http://www.w3.org/2000/svg" width="15.75" height="21" viewBox="0 0 91.64 122.19" shape-rendering="geometricPrecision" text-rendering="geometricPrecision" image-rendering="optimizeQuality" fill-rule="evenodd" clip-rule="evenodd"><path d="M45.82 0A45.83 45.83 0 000 45.82c0 29.43 22.13 42.3 27.02 48.17 11.75 14.1 12.41 28.2 18.8 28.2 6.39 0 7.05-14.1 18.8-28.2 4.89-5.87 27.02-18.74 27.02-48.17A45.83 45.83 0 0045.82 0zm5.09 46.24a5.1 5.1 0 10-10.18 0 5.1 5.1 0 0010.18 0zm-5.09 30.13a30.55 30.55 0 110-61.1 30.55 30.55 0 010 61.1zm0-45.82a15.28 15.28 0 10.01 30.55 15.28 15.28 0 00-.01-30.55z" fill="#ffd74b"/></svg>