<?xml version="1.0" encoding="UTF-8"?><!DOCTYPE svg PUBLIC "-//W3C//DTD SVG 1.1//EN" "http://www.w3.org/Graphics/SVG/1.1/DTD/svg11.dtd"><svg xmlns="http://www.w3.org/2000/svg" xmlns:xlink="http://www.w3.org/1999/xlink"><symbol id="html-academy-logo" viewBox="0 0 27 34">
<path d="M13.6426 0.0157537L13.5 0L0 1.40733V26.0129L13.5 34L27 26.0129V1.40733L13.6426 0.0157537ZM25.2344 25.0151L13.5 31.9573L1.76561 25.0151V14.9293L13.4507 21.8451L13.4701 23.0984L5.45351 18.3548L5.44295 19.5801L13.4894 24.3885L13.5088 25.675L5.46408 20.9174L5.45351 22.1427L13.5 26.9511L21.6239 22.1182V20.8929V16.909L25.2432 14.7595L25.2344 25.0151ZM25.2344 13.4519L22.0147 15.3319L20.5325 16.2071L13.4666 12.0201L13.456 13.2454L19.4957 16.818L19.4429 16.8495L19.3126 16.9247L18.4536 17.4166L13.4666 14.4689L13.456 15.6942L17.3921 18.0222L16.4591 18.6314L16.438 18.6436L13.4666 16.902L13.456 18.1273L15.4029 19.2615L13.4155 20.4483L1.7973 13.5762L13.4349 6.61831L25.2344 13.4519ZM25.2344 12.2266L13.4401 5.31075L1.76561 12.2196V2.9897L13.5 1.76442L25.2344 2.9897V12.2266Z" fill="#192144"/>
</symbol><symbol id="icon-arrow-bend" viewBox="0 0 32 16">
<path fill-rule="evenodd" clip-rule="evenodd" d="M4 16H28C30.2091 16 32 14.2091 32 12V7C32 4.79086 30.2091 3 28 3H4V5H28C29.1046 5 30 5.89543 30 7V12C30 13.1046 29.1046 14 28 14H4V16Z" fill="white"/>
<path d="M0 4L9 0.535898V7.4641L0 4Z" fill="white"/>
</symbol><symbol id="icon-arrow" viewBox="0 0 10 19">
<path d="M1.06949 18.3693C1.16815 18.481 1.28536 18.5695 1.41439 18.63C1.54343 18.6904 1.68176 18.7216 1.82146 18.7216C1.96117 18.7216 2.0995 18.6904 2.22853 18.63C2.35757 18.5695 2.47477 18.481 2.57344 18.3693L9.63433 10.398C9.7131 10.3092 9.77559 10.2038 9.81823 10.0878C9.86086 9.97171 9.88281 9.84732 9.88281 9.72169C9.88281 9.59605 9.86086 9.47166 9.81823 9.35561C9.77559 9.23957 9.7131 9.13416 9.63433 9.04542L2.57344 1.07408C2.15709 0.60405 1.48584 0.60405 1.06949 1.07408C0.653145 1.54411 1.32374 2.3591 1.74009 2.82913L7.82453 9.72169L1.41439 16.972C1.00654 17.4324 0.653145 17.9089 1.06949 18.3693Z" fill="black"/>
</symbol><symbol id="icon-check-mark" viewBox="0 0 9 9">
<path d="M2.83484 8.46392L0.388824 5.80546V5.44435V4.72213C0.388824 4.75169 0.388824 4.69256 0.388824 4.72213C0.388824 4.56696 0.388875 4.36102 0.388875 4.36102V3.63879L2.82803 5.99046C2.91165 6.07814 3.04776 6.07712 3.13138 5.98944L8.33331 0.388794V1.88575V2.55546C8.33331 2.91657 8.33331 2.91657 8.33331 2.91657L3.86155 7.69823L3.86253 7.69925L3.13819 8.4629C3.05457 8.55058 2.91845 8.55058 2.83484 8.46392Z" fill="#161C35"/>
</symbol><symbol id="icon-down" viewBox="0 0 10 5">
<path d="M5 5L0.669872 0.5L9.33013 0.5L5 5Z" fill="#192144"/>
</symbol><symbol id="icon-filter" viewBox="0 0 23 15">
<rect x="11" width="12" height="3" fill="#192144"/>
<rect x="11" y="12" width="12" height="3" fill="#192144"/>
<rect y="6" width="12" height="3" fill="#192144"/>
<rect x="6" width="3" height="3" fill="#192144"/>
<rect x="6" y="12" width="3" height="3" fill="#192144"/>
<rect x="14" y="6" width="3" height="3" fill="#192144"/>
<rect width="4" height="3" fill="#192144"/>
<rect y="12" width="4" height="3" fill="#192144"/>
<rect x="19" y="6" width="4" height="3" fill="#192144"/>
</symbol><symbol id="icon-heart-liked" viewBox="0 0 13 11">
<path d="M3.25536 0.47406C4.94813 0.47406 6.31919 1.82156 6.31919 3.48385C6.31919 1.82156 7.69025 0.47406 9.38302 0.47406C11.0758 0.47406 12.4469 1.82156 12.4469 3.48385C12.4469 5.98919 9.96974 6.87293 6.61945 10.8609C6.58256 10.9047 6.53658 10.9399 6.48472 10.9641C6.43286 10.9882 6.37637 11.0007 6.31919 11.0007C6.26201 11.0007 6.20552 10.9882 6.15366 10.9641C6.1018 10.9399 6.05582 10.9047 6.01893 10.8609C2.66864 6.87293 0.191528 5.98919 0.191528 3.48385C0.191528 1.82156 1.56259 0.47406 3.25536 0.47406Z" fill="#F02323"/>
</symbol><symbol id="icon-heart" viewBox="0 0 13 12">
<path fill-rule="evenodd" clip-rule="evenodd" d="M6.31919 4.6942L7.00396 3.25148C7.174 2.89423 7.46889 2.38052 7.88634 1.96521C8.29689 1.55634 8.78864 1.27812 9.38302 1.27812C10.6668 1.27812 11.6809 2.34746 11.6809 3.63293C11.6809 4.60953 11.2566 5.29903 10.2501 6.35063C9.99196 6.61998 9.69783 6.91111 9.3723 7.23207C8.52362 8.07077 7.46813 9.1143 6.31919 10.5094C5.17025 9.1143 4.11476 8.07077 3.26608 7.23207C2.94055 6.91111 2.64566 6.61917 2.38829 6.35063C1.38183 5.29903 0.957486 4.60953 0.957486 3.63293C0.957486 2.34746 1.97161 1.27812 3.25536 1.27812C3.84974 1.27812 4.34149 1.55634 4.75204 1.96521C5.16949 2.38052 5.46438 2.89423 5.63442 3.25148L6.31919 4.6942ZM6.61945 11.3812C6.58256 11.4272 6.53658 11.4642 6.48472 11.4895C6.43286 11.5149 6.37637 11.528 6.31919 11.528C6.26201 11.528 6.20552 11.5149 6.15366 11.4895C6.1018 11.4642 6.05582 11.4272 6.01893 11.3812C4.79264 9.84736 3.68276 8.7506 2.76898 7.84819C1.18727 6.2845 0.191528 5.30145 0.191528 3.63293C0.191528 1.88698 1.56259 0.47168 3.25536 0.47168C4.48089 0.47168 5.338 1.31844 5.86268 2.09101C6.06183 2.38536 6.21349 2.66842 6.31919 2.891C6.4517 2.61243 6.60431 2.34499 6.7757 2.09101C7.30038 1.31764 8.15749 0.47168 9.38302 0.47168C11.0758 0.47168 12.4469 1.88698 12.4469 3.63293C12.4469 5.30145 11.4511 6.2845 9.8694 7.84819C8.95562 8.7514 7.84574 9.84816 6.61945 11.3804V11.3812Z" fill="#192144"/>
</symbol><symbol id="icon-user" viewBox="0 0 12 12">
<path opacity="0.1" d="M3.375 2.92978C3.375 4.45321 4.55275 5.69294 6 5.69294C7.44725 5.69294 8.625 4.45321 8.625 2.92978C8.625 1.40636 7.44725 0.166626 6 0.166626C4.55275 0.166626 3.375 1.40636 3.375 2.92978ZM10.6667 11.8333H11.25V11.2193C11.25 8.8497 9.41775 6.92101 7.16667 6.92101H4.83333C2.58167 6.92101 0.75 8.8497 0.75 11.2193V11.8333H10.6667Z" fill="#192144"/>
</symbol><symbol id="next-down-arrow" viewBox="0 0 8 11">
<path d="M3.64645 10.3536C3.84171 10.5488 4.15829 10.5488 4.35355 10.3536L7.53553 7.17157C7.7308 6.97631 7.7308 6.65973 7.53553 6.46447C7.34027 6.2692 7.02369 6.2692 6.82843 6.46447L4 9.29289L1.17157 6.46447C0.976311 6.2692 0.659728 6.2692 0.464466 6.46447C0.269204 6.65973 0.269204 6.97631 0.464466 7.17157L3.64645 10.3536ZM3.5 0L3.5 10H4.5L4.5 0L3.5 0Z" fill="#CBCED9"/>
</symbol><symbol id="icon-arrow-button" viewBox="0 0 11 12">
<path d="M10.0698 6.07497L0.157238 11.7041V0.445801L10.0698 6.07497Z" fill="currentColor"/>
</symbol><symbol id="icon-bicycle" viewBox="0 0 25 24"><path d="M18.3 21a4.2 4.2 0 01-4-2.7 4.4 4.4 0 011-4.7 4.2 4.2 0 017.3 3c0 1.2-.5 2.3-1.3 3.1-.8.8-1.9 1.3-3 1.3zm0-7.1a2.8 2.8 0 00-2.5 1.7 2.9 2.9 0 00.5 3 2.8 2.8 0 004.8-2c0-.7-.3-1.4-.8-1.9a2.8 2.8 0 00-2-.8zM6.1 21a4.2 4.2 0 01-4-2.7 4.4 4.4 0 011-4.7 4.2 4.2 0 017.3 3c0 1.2-.5 2.3-1.3 3.1-.8.8-1.9 1.3-3 1.3zm0-7.1a2.8 2.8 0 00-2.6 1.7 2.9 2.9 0 00.6 3 2.8 2.8 0 004.8-2c0-.7-.3-1.4-.8-1.9a2.8 2.8 0 00-2-.8zm9-7.9a1.5 1.5 0 001.4-1l.1-.5a1.5 1.5 0 00-.9-1.4 1.5 1.5 0 00-1.9.8 1.5 1.5 0 00.8 2l.6.1z"/><path d="M17.4 9h-2a.2.2 0 01-.2-.1l-1.5-2.7a1.4 1.4 0 00-1-.8 1.4 1.4 0 00-1.3.4L8.2 9.1c-.3.3-.4.7-.4 1 0 .9.5 1.2.8 1.3a146.3 146.3 0 012.8 1.7v3.4c0 .4.4.7.8.8a.7.7 0 00.7-.5v-4.3a.8.8 0 00-.3-.6L11 10.6a.2.2 0 010-.1.2.2 0 010-.2l2-2a.2.2 0 01.1-.1.2.2 0 01.1 0l1 2a.7.7 0 00.7.3h2.6a.7.7 0 00.5-.2.8.8 0 00-.5-1.3z"/></symbol><symbol id="icon-bus" viewBox="0 0 18 21"><path d="M4.3 14c0-.4-.1-.8-.4-1a1.4 1.4 0 00-1-.4c-.4 0-.7.1-1 .4-.3.2-.4.6-.4 1s.1.6.4 1c.3.2.6.3 1 .3s.8-.1 1-.4c.3-.3.4-.6.4-1zm11.4 0c0-.4-.1-.8-.4-1a1.4 1.4 0 00-1-.4c-.4 0-.8.1-1 .4-.3.2-.4.6-.4 1s.1.6.4 1c.2.2.6.3 1 .3s.7-.1 1-.4.4-.6.4-1zm-.5-4.3l-.8-4.1a.7.7 0 00-.3-.4.7.7 0 00-.4-.2H3.5a.7.7 0 00-.5.2.7.7 0 00-.2.4L2 9.7c0 .2 0 .4.2.6l.5.2h11.8c.2 0 .4 0 .5-.2.2-.2.2-.4.2-.6zm-2.5-6.5a.5.5 0 00-.5-.6H5a.5.5 0 00-.4.2l-.2.3c0 .2 0 .3.2.4l.4.2h7a.5.5 0 00.6-.6zm4.4 7.7v6.5h-1.4v1.4c0 .3-.1.6-.4 1-.3.2-.6.3-1 .3s-.8-.1-1-.4a1.3 1.3 0 01-.4-1v-1.3H4.3v1.4c0 .3-.1.6-.4 1-.3.2-.6.3-1 .3s-.7-.1-1-.4a1.3 1.3 0 01-.4-1v-1.3H.1v-6.5c0-.8 0-1.6.3-2.4l1.1-4.8c0-.6.4-1 1-1.5.7-.4 1.6-.7 2.6-1A17.3 17.3 0 018.6 1c1.3 0 2.4.1 3.5.3 1 .3 1.9.6 2.5 1 .7.4 1 1 1.1 1.5l1.2 4.8.2 2.4z"/></symbol><symbol id="icon-businessman" viewBox="0 0 20 22"><path d="M19.38 20.24V16.9a5.84 5.84 0 00-2.81-5.09c-.94-.67-2.95-.8-3.9-.8l-2.13 2.28.8 1.74v4.02L10 20.5l-1.34-1.47v-4.02l.94-1.74L7.32 11c-1.07 0-3.08.13-4.02.8a5.53 5.53 0 00-2 2.28 5.15 5.15 0 00-.68 2.81v3.35s3.49 1.48 9.38 1.48c5.9 0 9.38-1.48 9.38-1.48zM10 .42C7.45.42 5.98 2.83 6.38 5.5c.4 2.68 1.74 4.55 3.62 4.55 1.88 0 3.21-1.87 3.62-4.55C14.02 2.7 12.54.4 10 .4z" fill="currentColor"/></symbol><symbol id="icon-call" viewBox="0 0 16 17">
<path d="M7.93665 6.52391C7.93665 6.7129 8.09027 6.86141 8.27802 6.86141C8.6672 6.86141 8.98127 7.17528 8.98127 7.55666C8.98127 7.74228 9.13489 7.89416 9.32265 7.89416C9.5104 7.89416 9.66402 7.74228 9.66402 7.55666C9.66402 6.80066 9.04271 6.18641 8.27802 6.18641C8.09027 6.18641 7.93665 6.33828 7.93665 6.52391ZM13.4943 7.89416C13.6855 7.89416 13.8357 7.74228 13.8357 7.55666C13.8357 4.52591 11.3436 2.06216 8.27802 2.06216C8.09027 2.06216 7.93665 2.21402 7.93665 2.39966C7.93665 2.58529 8.09027 2.73716 8.27802 2.73716C10.9681 2.73716 13.1529 4.90053 13.1529 7.55666C13.1529 7.74228 13.3065 7.89416 13.4943 7.89416Z" fill="#161C35"/>
<path d="M11.0671 7.55663C11.0671 7.74225 11.2207 7.89413 11.4084 7.89413C11.5962 7.89413 11.7498 7.74225 11.7498 7.55663C11.7498 5.66326 10.1931 4.12426 8.27801 4.12426C8.09025 4.12426 7.93663 4.27614 7.93663 4.46176C7.93663 4.65076 8.09025 4.79926 8.27801 4.79926C9.81763 4.79926 11.0671 6.03788 11.0671 7.55663ZM8.27801 0C8.09025 0 7.93663 0.151879 7.93663 0.3375C7.93663 0.523142 8.09025 0.675 8.27801 0.675C12.1185 0.675 15.2422 3.76313 15.2422 7.55663C15.2422 7.74225 15.3924 7.89413 15.5835 7.89413C15.7713 7.89413 15.9249 7.74225 15.9249 7.55663C15.9249 3.38851 12.494 0 8.27801 0ZM11.6133 11.1139L11.1661 11.3535C10.4116 11.7619 9.82454 12.8813 8.89351 12.0375L6.46246 9.6L4.36239 7.55663C3.3073 6.2235 4.4887 5.90625 4.90176 5.15701L5.14415 4.71827C5.41724 4.21875 5.51624 3.65851 5.43431 3.09825C5.3558 2.53801 5.09976 2.02838 4.69011 1.62337C4.19171 1.13064 3.52943 0.860642 2.82277 0.860642C2.11611 0.860642 1.45042 1.13064 0.951998 1.62337L0.777912 1.79888C-0.143816 2.71014 -0.249642 4.2795 0.477497 6.2235C1.16365 8.07975 2.54625 10.0913 4.36239 11.8868C7.13098 14.6239 10.2136 16.2 12.4258 16.2C13.2997 16.2 14.0405 15.9536 14.5662 15.4339L14.7437 15.2584C15.2387 14.769 15.5153 14.1143 15.5187 13.4089C15.5153 12.7204 15.2319 12.0454 14.7437 11.5628C13.921 10.7494 12.634 10.5671 11.6133 11.1139Z" fill="#161C35"/>
</symbol><symbol id="icon-envelope" viewBox="0 0 19 13">
<path fill-rule="evenodd" clip-rule="evenodd" d="M16.1393 10.4663L11.8089 6.5L16.1393 2.53365L15.5488 1.90264L9.24997 7.67188L2.95117 1.90264L2.36066 2.53365L6.69108 6.5L2.36066 10.4663L2.95117 11.0974L7.33081 7.08594L9.24997 8.84375L11.1691 7.08594L15.5488 11.0974L16.1393 10.4663ZM1.57593 0.25C0.76692 0.25 0.111084 0.948839 0.111084 1.80786V11.1921C0.111084 12.0525 0.7616 12.75 1.57593 12.75H16.924C17.733 12.75 18.3889 12.0512 18.3889 11.1921V1.80786C18.3889 0.947478 17.7383 0.25 16.924 0.25H1.57593Z" fill="#FFD74B"/>
</symbol><symbol id="icon-facebook" viewBox="0 0 11 21">
<path d="M7.48786 20.7695H2.12929V11.2513H0V6.54393H2.06643C1.90929 4.41158 2.30214 2.85474 3.26071 1.79225C3.71777 1.32067 4.27461 0.94388 4.89562 0.685966C5.51662 0.428052 6.18812 0.294698 6.86714 0.294434L10.6229 0.294434V4.83215H7.66857C7.49452 5.3871 7.42799 5.9669 7.47214 6.54393H10.615V11.2513H7.47214L7.48786 20.7695ZM3.31571 19.6627H6.28571V10.1446H9.42857V7.67283H6.28571V7.11207C6.28571 5.63639 6.28571 4.31566 7.07143 3.82131L7.22071 3.72539H9.42857V1.40119H6.89857C6.38444 1.39495 5.87465 1.49025 5.40225 1.68092C4.92986 1.87158 4.50541 2.15335 4.15643 2.50795C3.37071 3.41549 3.04857 4.93544 3.29214 7.03829L3.37071 7.65069H1.17857V10.1446H3.31571V19.6627Z" fill="#192144"/>
</symbol><symbol id="icon-instagram" viewBox="0 0 17 17">
<path d="M12.24 1.06249C13.0987 1.06436 13.9217 1.40078 14.5289 1.99814C15.1361 2.5955 15.4781 3.40516 15.48 4.24995V12.0415C15.4781 12.8863 15.1361 13.696 14.5289 14.2933C13.9217 14.8907 13.0987 15.2271 12.24 15.229H4.32C3.46253 15.2253 2.64137 14.888 2.03572 14.2909C1.43007 13.6937 1.08909 12.8851 1.0872 12.0415V4.24995C1.08909 3.40638 1.43007 2.59779 2.03572 2.00063C2.64137 1.40347 3.46253 1.06623 4.32 1.06249H12.24ZM12.24 0H4.32C3.17426 0 2.07546 0.447762 1.2653 1.24478C0.455141 2.0418 0 3.1228 0 4.24995L0 12.0415C0 13.1687 0.455141 14.2497 1.2653 15.0467C2.07546 15.8437 3.17426 16.2915 4.32 16.2915H12.24C13.3857 16.2915 14.4845 15.8437 15.2947 15.0467C16.1049 14.2497 16.56 13.1687 16.56 12.0415V4.24995C16.56 3.1228 16.1049 2.0418 15.2947 1.24478C14.4845 0.447762 13.3857 0 12.24 0V0Z" fill="#192144"/>
<path d="M8.28694 5.01416C8.91778 5.01416 9.53446 5.19819 10.059 5.54298C10.5835 5.88778 10.9923 6.37785 11.2337 6.95122C11.4752 7.5246 11.5383 8.15552 11.4153 8.76421C11.2922 9.3729 10.9884 9.93202 10.5423 10.3709C10.0963 10.8097 9.52792 11.1086 8.9092 11.2296C8.29047 11.3507 7.64915 11.2886 7.06633 11.0511C6.4835 10.8136 5.98536 10.4114 5.63488 9.89535C5.2844 9.37933 5.09733 8.77265 5.09733 8.15204C5.09639 7.7397 5.17824 7.33125 5.3382 6.95012C5.49815 6.56899 5.73306 6.2227 6.02943 5.93114C6.3258 5.63957 6.6778 5.40847 7.06521 5.25111C7.45261 5.09375 7.86781 5.01322 8.28694 5.01416V5.01416ZM8.28694 3.95167C7.44218 3.95026 6.61599 4.19542 5.91291 4.65611C5.20983 5.1168 4.66147 5.77232 4.33721 6.53971C4.01295 7.30711 3.92737 8.15188 4.0913 8.96714C4.25523 9.7824 4.6613 10.5315 5.25812 11.1196C5.85495 11.7078 6.61571 12.1085 7.44413 12.2712C8.27254 12.4338 9.13139 12.3511 9.91198 12.0334C10.6926 11.7156 11.3598 11.1773 11.8293 10.4864C12.2987 9.79548 12.5493 8.9831 12.5493 8.15204C12.5503 7.60077 12.4407 7.05473 12.227 6.54516C12.0132 6.03559 11.6994 5.57249 11.3035 5.18236C10.9076 4.79222 10.4374 4.48271 9.91975 4.27154C9.40214 4.06036 8.84729 3.95167 8.28694 3.95167Z" fill="#192144"/>
<path d="M12.7081 4.76013C13.2409 4.76013 13.6729 4.33518 13.6729 3.81097C13.6729 3.28677 13.2409 2.86182 12.7081 2.86182C12.1752 2.86182 11.7433 3.28677 11.7433 3.81097C11.7433 4.33518 12.1752 4.76013 12.7081 4.76013Z" fill="#192144"/>
</symbol><symbol id="icon-mail" viewBox="0 0 17 13">
<path d="M0.516601 1.3503L7.2666 5.58075C7.4934 5.7225 7.7868 5.7897 8.082 5.7897C8.3772 5.7897 8.6706 5.7225 8.8974 5.58075L15.6474 1.3503C16.0875 1.07415 16.5033 0 15.696 0H0.468901C-0.338399 0 0.0774014 1.07415 0.516601 1.3503ZM15.8517 3.66345L8.8974 7.8918C8.5914 8.0787 8.3772 8.10075 8.082 8.10075C7.7868 8.10075 7.5726 8.0787 7.2666 7.8918C6.9606 7.7049 0.846901 3.96585 0.347401 3.6624C-0.00359852 3.4482 1.45446e-06 3.69915 1.45446e-06 3.89235V11.55C1.45446e-06 11.991 0.509401 12.6 0.900001 12.6H15.3C15.6906 12.6 16.2 11.991 16.2 11.55V3.8934C16.2 3.7002 16.2036 3.44925 15.8517 3.66345Z" fill="#161C35"/>
</symbol><symbol id="icon-map-mark" viewBox="0 0 91.64 122.19"><path d="M45.82 0A45.83 45.83 0 000 45.82c0 29.43 22.13 42.3 27.02 48.17 11.75 14.1 12.41 28.2 18.8 28.2 6.39 0 7.05-14.1 18.8-28.2 4.89-5.87 27.02-18.74 27.02-48.17A45.83 45.83 0 0045.82 0zm5.09 46.24a5.1 5.1 0 10-10.18 0 5.1 5.1 0 0010.18 0zm-5.09 30.13a30.55 30.55 0 110-61.1 30.55 30.55 0 010 61.1zm0-45.82a15.28 15.28 0 10.01 30.55 15.28 15.28 0 00-.01-30.55z" fill="#ffd74b"/></symbol><symbol id="icon-phone" viewBox="0 0 17 15">
<path fill-rule="evenodd" clip-rule="evenodd" d="M8.49995 0.0859375C5.7035 0.0859375 2.90033 0.558605 1.88322 1.50071C1.03934 2.2823 0.758038 3.66308 0.663214 4.53732C0.663214 4.53732 0.650146 4.62371 0.650146 4.66087C0.650146 5.0037 0.944447 5.27865 1.30427 5.27865C1.34678 5.27865 2.92002 5.15816 3.86851 5.08404C3.89134 5.08091 3.91434 5.07785 3.93716 5.0717C4.29043 5.06248 4.57505 4.79059 4.57505 4.45392L4.57822 3.23679C4.57822 2.85993 4.90214 2.55716 5.3012 2.55716H11.6987C12.0978 2.55716 12.4218 2.8599 12.4218 3.23679L12.425 4.45392C12.425 4.79059 12.7095 5.06248 13.0628 5.0717C13.0854 5.07789 13.1085 5.08091 13.1315 5.08404C14.0801 5.15812 15.6533 5.27865 15.6957 5.27865C16.0553 5.27865 16.3499 5.0037 16.3499 4.66087C16.3499 4.62371 16.3368 4.53732 16.3368 4.53732C16.2419 3.66308 15.9609 2.28234 15.117 1.50071C14.0996 0.558605 11.2964 0.0859375 8.49995 0.0859375ZM8.49995 8.11752C7.7771 8.11752 7.19164 8.67043 7.19164 9.35311C7.19164 10.0358 7.7771 10.5887 8.49995 10.5887C9.22279 10.5887 9.80823 10.0358 9.80823 9.35311C9.80823 8.67043 9.22279 8.11752 8.49995 8.11752ZM7.51873 5.33731V4.56506C7.51873 4.13881 7.15236 3.79282 6.70106 3.79282C6.24977 3.79282 5.8834 4.13884 5.8834 4.56506V5.33731L1.47095 9.78869C1.16689 10.0698 0.977135 10.462 0.977135 10.8946V12.1333C0.977135 12.816 1.56264 13.3689 2.28545 13.3689H2.61254V14.1412C2.61254 14.5675 2.97895 14.9134 3.43025 14.9134C3.88154 14.9134 4.24792 14.5675 4.24792 14.1412V13.3689H12.752V14.1412C12.752 14.5675 13.1182 14.9134 13.5697 14.9134C14.021 14.9134 14.3873 14.5675 14.3873 14.1412V13.3689H14.7144C15.4373 13.3689 16.0227 12.816 16.0227 12.1333V10.8946C16.0227 10.462 15.833 10.0698 15.5289 9.78869L11.1166 5.33731V4.56506C11.1166 4.13881 10.7502 3.79282 10.2989 3.79282C9.84757 3.79282 9.48124 4.13884 9.48124 4.56506V5.33731H7.51873ZM8.49995 6.88189C9.94564 6.88189 11.1166 7.98777 11.1166 9.35311C11.1166 10.7185 9.94567 11.8244 8.49995 11.8244C7.05426 11.8244 5.88336 10.7185 5.88336 9.35311C5.88336 7.98774 7.05426 6.88189 8.49995 6.88189Z" fill="#FFD74B"/>
</symbol><symbol id="icon-plane" viewBox="0 0 21 23"><path d="M16.8 2.1c-.7.2-1.5.3-1.7.8L13 7.1 1.6 9.8l-.4 1.3 8.6.9-1.5 3.6-3.2.8-.9 1.4 2.4.3.3 1.1c.1.4.5.7.9.6l1-.2 1.4 2.1.8-1.4-.8-3.5 2.3-3 4.6 8 .9-1.1-2.8-12 2.6-4c.2-.4 0-1.2-.1-2-.1-.4-.6-.7-1-.6z"/></symbol><symbol id="icon-run" viewBox="0 0 21 24"><path d="M15 5.8c1 0 1.7-.9 1.7-2S15.9 2 15 2s-1.8.9-1.8 2S14 5.7 15 5.7zm-1 4.7c.1.4.4.6.7.7.4.2.7.2 1 .1l3-.8-.5-1.8-2.8.8-1.2-2a1.7 1.7 0 00-1.1-.8l-3.3-.8a1.6 1.6 0 00-1.1.2c-.4.2-.6.5-.8.9L6.5 10 8 11l1.4-3.2 1.7.4-4.4 8.1H3v2h3.8c.6 0 1.2-.4 1.5-1l1.7-3 4.4 1 1.6 5.2 1.6-.6-1.5-5.3a2 2 0 00-.5-.8l-.8-.5-2.7-.5 1.6-2.9.3.6z"/></symbol><symbol id="icon-vk" viewBox="0 0 23 12">
<path d="M17.7664 11.8542C17.219 11.8419 16.6854 11.6812 16.2232 11.3893C15.7407 11.065 15.2975 10.6862 14.9026 10.2604C14.5761 9.93579 14.0345 9.38979 13.8268 9.38979C13.619 9.38979 13.4706 10.0686 13.478 10.5482C13.4812 10.8792 13.3564 11.1989 13.1293 11.441C12.8712 11.6507 12.5561 11.7791 12.2242 11.8099H10.7997C8.75222 11.7651 6.79178 10.9779 5.28708 9.59639C2.55676 7.10987 0.21224 2.35818 0.115789 2.15159C0.0237889 1.97899 -0.0147389 1.78317 0.00506792 1.58882C0.0248747 1.39447 0.102128 1.21031 0.227079 1.05958C0.509857 0.825057 0.867951 0.699369 1.23611 0.705422H4.26321H4.35224C4.6027 0.741762 4.84277 0.829721 5.05708 0.963666C5.25875 1.09815 5.42022 1.28422 5.5245 1.50229C5.8444 2.18336 6.2113 2.84161 6.62256 3.47232C7.5945 4.948 8.02482 5.2874 8.18063 5.36119C8.35396 4.66929 8.40169 3.95217 8.3216 3.24359C8.3476 2.92086 8.29412 2.5967 8.16579 2.29916C8.00289 2.16957 7.80288 2.09466 7.5945 2.08518L7.05289 1.57607C6.94901 1.0891 7.49063 0.66853 7.86902 0.506205C8.62414 0.270907 9.41638 0.175863 10.2061 0.225826H10.7329C11.2686 0.211953 11.8041 0.26149 12.328 0.373394C13.5893 0.639016 13.5448 1.64986 13.4929 2.81564C13.4929 3.15505 13.4558 3.55348 13.4558 4.01094C13.4558 4.12162 13.4558 4.23967 13.4558 4.36511C13.4266 4.68633 13.4492 5.01013 13.5226 5.3243C14.1402 4.81043 14.6604 4.1907 15.0584 3.49445C15.4879 2.83611 15.865 2.14535 16.1861 1.4285V1.4285C16.2839 1.20178 16.4516 1.01177 16.6649 0.885809C16.8782 0.75985 17.1262 0.704442 17.3732 0.727557H20.5487C20.6425 0.718658 20.7369 0.718658 20.8306 0.727557C21.5726 0.727557 22.0103 0.941531 22.1884 1.35472C22.3664 1.76791 22.3145 2.57953 20.4374 4.75616L19.6955 5.58992C19.336 5.93702 19.0264 6.3318 18.7755 6.76308C19.0565 7.08078 19.3754 7.36324 19.7251 7.60422C20.5778 8.24318 21.3283 9.0069 21.951 9.86939C22.097 10.0371 22.1925 10.2423 22.2266 10.4616C22.2608 10.6808 22.2321 10.9052 22.1439 11.109C21.9884 11.3346 21.7803 11.5196 21.5375 11.6481C21.2946 11.7765 21.0241 11.8447 20.749 11.8468L17.9371 11.8837L17.7664 11.8542ZM13.8268 8.28303C14.4945 8.28303 15.0732 8.86593 15.689 9.47833C16.0217 9.83957 16.3951 10.1614 16.8019 10.4375C17.1096 10.641 17.4711 10.7489 17.8406 10.7474H17.9148L20.7342 10.7105C20.8732 10.7026 21.0094 10.6675 21.1348 10.6072L21.0606 10.4892C20.499 9.72803 19.8292 9.052 19.0722 8.48225C18.1893 7.74441 17.7368 7.39762 17.6848 6.82949C17.6329 6.26135 18.0484 5.767 18.8793 4.82994L19.6213 4.01094C20.2477 3.37556 20.7618 2.6397 21.1422 1.83432C20.9767 1.82455 20.8107 1.82455 20.6451 1.83432H17.4029C17.3443 1.82128 17.2835 1.82128 17.2248 1.83432C16.8814 2.61749 16.4719 3.37032 16.0006 4.08473C14.5984 6.16543 13.938 6.44581 13.4706 6.44581C13.3257 6.44581 13.183 6.41034 13.0551 6.34251C12.3132 5.92195 12.3132 4.98489 12.3577 4.30608C12.3577 4.1954 12.3577 4.08473 12.3577 3.98881C12.3577 3.50921 12.3577 3.09602 12.3948 2.74186C12.4542 1.50229 12.3948 1.49491 12.1129 1.4285C11.6586 1.33924 11.1958 1.29965 10.7329 1.31045H10.221C9.74988 1.30077 9.27872 1.32543 8.81127 1.38423C8.88207 1.43611 8.94459 1.49829 8.99676 1.56869C9.30278 2.04854 9.4554 2.60935 9.4345 3.17718C9.53095 4.39462 9.47901 5.98097 8.69256 6.36465C8.5533 6.42946 8.40115 6.46224 8.2474 6.46057C7.5574 6.46057 6.87482 5.81127 5.70998 4.05521C5.26298 3.38283 4.86383 2.68017 4.51547 1.95237L4.45611 1.87859C4.38118 1.84061 4.30126 1.81329 4.21869 1.79742H1.25095H1.19901C1.63676 2.69759 3.71418 6.68192 6.03643 8.77001C7.34044 9.9614 9.02994 10.6497 10.7997 10.7105H12.1722C12.2422 10.6957 12.3097 10.6708 12.3726 10.6367C12.3726 10.6367 12.3726 10.6367 12.3726 10.5703C12.3726 10.3711 12.3726 8.65195 13.5448 8.35682C13.6356 8.32127 13.7302 8.29651 13.8268 8.28303V8.28303Z" fill="#192144"/>
</symbol><symbol id="level-catalog-25" viewBox="0 0 45 45">
<path d="M1.5 1.5a21 21 0 0121 21" stroke="#FF8D30" stroke-width="3" stroke-linecap="round"/>
</symbol><symbol id="level-catalog-50" viewBox="0 0 45 45">
<path d="M1.5 1.5a21 21 0 110 42" stroke="#FF8D30" stroke-width="3" stroke-linecap="round"/>
</symbol><symbol id="level-catalog-80" viewBox="0 0 45 45">
<path d="M23.09 1.5A21 21 0 112.74 15.4" stroke="#FF8D30" stroke-width="3" stroke-linecap="round"/>
</symbol><symbol id="level-catalog-99" viewBox="0 0 45 45">
<path d="M23.46 1.52a21 21 0 11-3.92.19" stroke="#FF8D30" stroke-width="3" stroke-linecap="round"/>
</symbol><symbol id="level-form-80" viewBox="0 0 94 94">
<path fill-rule="evenodd" clip-rule="evenodd" d="M5.42 25.07A47 47 0 1047 0v3A44 44 0 118.85 25.07H5.42z" fill="#FF8D30"/>
</symbol><symbol id="level-index-80" viewBox="0 0 60 60">
<path d="M4.74236 17.9148C2.16557 23.3002 1.37757 29.3683 2.4934 35.2332C3.60922 41.0982 6.57045 46.4529 10.9448 50.5159C15.3192 54.5788 20.8777 57.1372 26.8089 57.8176C32.7402 58.498 38.7336 57.2647 43.9144 54.2979C49.0952 51.3311 53.1921 46.786 55.607 41.3261C58.022 35.8662 58.6285 29.7773 57.3382 23.9483C56.0478 18.1193 52.9282 12.8553 48.4345 8.92466C43.9408 4.99408 38.3084 2.6027 32.3595 2.0996" stroke="#FF8D30" stroke-width="4" stroke-linecap="round"/>
</symbol><symbol id="level-index-99" viewBox="0 0 60 60">
<path d="M22.5503 3.00922C15.7757 4.87906 9.95203 9.22814 6.23551 15.1929C2.51899 21.1577 1.18146 28.302 2.48848 35.2073C3.7955 42.1126 7.65149 48.2739 13.2908 52.4678C18.9302 56.6618 25.9405 58.5817 32.9298 57.8463C39.9191 57.1109 46.3763 53.7741 51.0193 48.4983C55.6623 43.2226 58.1516 36.3937 57.9929 29.3676C57.8341 22.3415 55.039 15.632 50.1625 10.5713C45.2859 5.51057 38.6846 2.46876 31.6692 2.0498" stroke="#FF8D30" stroke-width="4" stroke-linecap="round"/>
</symbol><symbol id="page-arrow" viewBox="0 0 10 18"><path d="M0 9L9.8.3v17.4L0 9z" fill="#1D2E5B"/></symbol></svg>